<svg width="1756" height="250" viewBox="0 0 1756 250" fill="none" xmlns="http://www.w3.org/2000/svg">
<path d="M119.707 4.30576C158.608 4.30576 189.683 12.7075 212.932 29.511C236.411 46.3145 248.15 72.3254 248.15 107.544V142.762C248.15 178.671 236.526 204.912 213.277 221.485C190.259 237.828 159.069 246 119.707 246H9.56371C7.03167 246 4.84491 245.079 3.00343 243.238C1.16195 241.396 0.241211 239.21 0.241211 236.678V13.6283C0.241211 11.0962 1.16195 8.90947 3.00343 7.06799C4.84491 5.2265 7.03167 4.30576 9.56371 4.30576H119.707ZM121.434 178.671C132.252 178.671 140.769 176.139 146.984 171.075C153.429 165.781 156.652 158.415 156.652 148.977V101.329C156.652 91.8912 153.429 84.6403 146.984 79.5762C140.769 74.282 132.252 71.6349 121.434 71.6349H90.0134V178.671H121.434Z" fill="#dadada"/>
<path d="M333.733 92.0062C359.054 94.7685 379.31 99.2571 394.502 105.472C409.924 111.687 421.088 119.859 427.994 129.987C434.9 140.115 438.352 152.775 438.352 167.967C438.352 184.541 432.943 199.042 422.124 211.472C411.536 223.672 396.804 233.11 377.929 239.785C359.054 246.23 337.531 249.453 313.362 249.453C286.43 249.453 263.642 246.115 244.997 239.44C226.352 232.764 212.426 223.902 203.218 212.853C194.011 201.574 189.407 189.259 189.407 175.909C189.407 173.607 190.098 171.765 191.479 170.384C193.09 169.003 195.047 168.313 197.349 168.313H268.13C272.964 168.313 276.878 169.809 279.87 172.801C283.783 176.484 288.157 179.016 292.99 180.397C297.824 181.548 304.615 182.124 313.362 182.124C335.229 182.124 346.163 178.786 346.163 172.111C346.163 169.348 344.667 167.047 341.675 165.205C338.912 163.133 333.848 161.407 326.482 160.026C319.347 158.415 308.758 156.803 294.717 155.192C263.182 151.509 239.012 143.683 222.209 131.713C205.405 119.513 197.003 102.365 197.003 80.2668C197.003 64.6142 201.722 50.8031 211.16 38.8335C220.597 26.8639 233.948 17.5414 251.212 10.866C268.706 4.19067 288.962 0.852989 311.981 0.852989C335.92 0.852989 356.867 4.65104 374.821 12.2471C392.776 19.6131 406.472 28.8205 415.909 39.8694C425.347 50.9182 430.066 61.7369 430.066 72.3254C430.066 74.6273 429.26 76.4688 427.649 77.8499C426.268 79.231 424.311 79.9215 421.779 79.9215H347.544C343.631 79.9215 340.063 78.5404 336.841 75.7782C334.309 73.4763 331.316 71.6349 327.863 70.2538C324.411 68.8727 319.116 68.1821 311.981 68.1821C296.558 68.1821 288.847 71.4047 288.847 77.8499C288.847 81.3026 291.84 84.0649 297.824 86.1365C303.809 87.978 315.779 89.9346 333.733 92.0062Z" fill="#ff2b8a"/>
<path d="M706.537 146.215C706.537 181.433 694.798 207.444 671.319 224.248C648.07 241.051 616.995 249.453 578.094 249.453C539.193 249.453 508.003 241.051 484.524 224.248C461.275 207.444 449.651 181.203 449.651 145.524V104.782C449.651 81.3026 455.175 61.852 466.224 46.4296C477.503 30.777 492.81 19.2678 512.146 11.9019C531.481 4.53594 553.464 0.852989 578.094 0.852989C602.724 0.852989 624.591 4.53594 643.697 11.9019C663.032 19.2678 678.339 30.6619 689.619 46.0843C700.898 61.5067 706.537 80.8423 706.537 104.091V146.215ZM542.876 152.775C542.876 162.213 545.983 169.463 552.198 174.528C558.643 179.592 567.275 182.124 578.094 182.124C588.913 182.124 597.429 179.592 603.644 174.528C610.09 169.233 613.312 161.867 613.312 152.43V97.876C613.312 88.4384 610.09 81.1876 603.644 76.1235C597.429 70.8292 588.913 68.1821 578.094 68.1821C567.275 68.1821 558.643 70.7141 552.198 75.7782C545.983 80.8423 542.876 88.0931 542.876 97.5307V152.775Z" fill="#ff2b8a"/>
<path d="M791.725 234.261C788.732 242.087 783.553 246 776.187 246H710.93C708.858 246 707.017 245.309 705.406 243.928C704.024 242.317 703.334 240.476 703.334 238.404L703.679 236.332L778.95 15.6999C779.87 12.7075 781.597 10.0604 784.129 7.75853C786.661 5.45668 790.114 4.30576 794.487 4.30576H890.474C894.848 4.30576 898.301 5.45668 900.833 7.75853C903.365 10.0604 905.091 12.7075 906.012 15.6999L981.282 236.332L981.628 238.404C981.628 240.476 980.822 242.317 979.211 243.928C977.83 245.309 976.103 246 974.031 246H908.774C901.408 246 896.229 242.087 893.237 234.261L884.605 210.091H800.357L791.725 234.261ZM842.481 70.9443L817.966 142.762H866.995L842.481 70.9443Z" fill="#ff2b8a"/>
<path d="M1241.87 235.296C1242.33 236.217 1242.56 237.253 1242.56 238.404C1242.56 240.476 1241.76 242.317 1240.14 243.928C1238.76 245.309 1237.04 246 1234.97 246H1156.59C1153.36 246 1150.37 245.194 1147.61 243.583C1145.08 241.972 1143.24 239.9 1142.09 237.368L1111.7 169.003H1082.7V236.678C1082.7 239.21 1081.78 241.396 1079.94 243.238C1078.09 245.079 1075.91 246 1073.38 246H998.796C996.264 246 994.077 245.079 992.235 243.238C990.394 241.396 989.473 239.21 989.473 236.678V13.6283C989.473 11.0962 990.394 8.90947 992.235 7.06799C994.077 5.2265 996.264 4.30576 998.796 4.30576H1133.11C1153.83 4.30576 1171.89 7.64344 1187.32 14.3188C1202.97 20.9942 1214.94 30.6619 1223.23 43.3221C1231.51 55.9823 1235.66 70.8292 1235.66 87.8629C1235.66 119.168 1223.57 141.841 1199.4 155.883L1241.87 235.296ZM1125.86 105.127C1130.92 105.127 1134.84 103.515 1137.6 100.293C1140.36 96.8401 1141.74 92.5817 1141.74 87.5176C1141.74 82.4536 1140.36 78.08 1137.6 74.3971C1135.07 70.484 1131.15 68.5274 1125.86 68.5274H1082.7V105.127H1125.86Z" fill="#ff2b8a"/>
<path d="M1480.02 178.671C1482.55 178.671 1484.74 179.592 1486.58 181.433C1488.42 183.275 1489.34 185.461 1489.34 187.993V236.678C1489.34 239.21 1488.42 241.396 1486.58 243.238C1484.74 245.079 1482.55 246 1480.02 246H1261.8C1259.27 246 1257.08 245.079 1255.24 243.238C1253.4 241.396 1252.48 239.21 1252.48 236.678V13.6283C1252.48 11.0962 1253.4 8.90947 1255.24 7.06799C1257.08 5.2265 1259.27 4.30576 1261.8 4.30576H1476.56C1479.1 4.30576 1481.28 5.2265 1483.12 7.06799C1484.97 8.90947 1485.89 11.0962 1485.89 13.6283V62.3124C1485.89 64.8444 1484.97 67.0312 1483.12 68.8727C1481.28 70.7141 1479.1 71.6349 1476.56 71.6349H1342.25V93.3873H1457.57C1460.11 93.3873 1462.29 94.3081 1464.13 96.1496C1465.98 97.9911 1466.9 100.178 1466.9 102.71V147.596C1466.9 150.128 1465.98 152.315 1464.13 154.156C1462.29 155.998 1460.11 156.918 1457.57 156.918H1342.25V178.671H1480.02Z" fill="#ff2b8a"/>
<path d="M1650.49 92.0062C1675.81 94.7685 1696.06 99.2571 1711.26 105.472C1726.68 111.687 1737.84 119.859 1744.75 129.987C1751.65 140.115 1755.11 152.775 1755.11 167.967C1755.11 184.541 1749.7 199.042 1738.88 211.472C1728.29 223.672 1713.56 233.11 1694.68 239.785C1675.81 246.23 1654.29 249.453 1630.12 249.453C1603.19 249.453 1580.4 246.115 1561.75 239.44C1543.11 232.764 1529.18 223.902 1519.97 212.853C1510.77 201.574 1506.16 189.259 1506.16 175.909C1506.16 173.607 1506.85 171.765 1508.23 170.384C1509.85 169.003 1511.8 168.313 1514.1 168.313H1584.89C1589.72 168.313 1593.63 169.809 1596.62 172.801C1600.54 176.484 1604.91 179.016 1609.75 180.397C1614.58 181.548 1621.37 182.124 1630.12 182.124C1651.98 182.124 1662.92 178.786 1662.92 172.111C1662.92 169.348 1661.42 167.047 1658.43 165.205C1655.67 163.133 1650.6 161.407 1643.24 160.026C1636.1 158.415 1625.51 156.803 1611.47 155.192C1579.94 151.509 1555.77 143.683 1538.96 131.713C1522.16 119.513 1513.76 102.365 1513.76 80.2668C1513.76 64.6142 1518.48 50.8031 1527.91 38.8335C1537.35 26.8639 1550.7 17.5414 1567.97 10.866C1585.46 4.19067 1605.72 0.852989 1628.74 0.852989C1652.67 0.852989 1673.62 4.65104 1691.58 12.2471C1709.53 19.6131 1723.23 28.8205 1732.66 39.8694C1742.1 50.9182 1746.82 61.7369 1746.82 72.3254C1746.82 74.6273 1746.01 76.4688 1744.4 77.8499C1743.02 79.231 1741.07 79.9215 1738.53 79.9215H1664.3C1660.39 79.9215 1656.82 78.5404 1653.6 75.7782C1651.06 73.4763 1648.07 71.6349 1644.62 70.2538C1641.17 68.8727 1635.87 68.1821 1628.74 68.1821C1613.31 68.1821 1605.6 71.4047 1605.6 77.8499C1605.6 81.3026 1608.59 84.0649 1614.58 86.1365C1620.56 87.978 1632.53 89.9346 1650.49 92.0062Z" fill="#ff2b8a"/>
</svg>
