<?xml version="1.0" encoding="UTF-8" standalone="no"?>
<!DOCTYPE svg PUBLIC "-//W3C//DTD SVG 1.1//EN" "http://www.w3.org/Graphics/SVG/1.1/DTD/svg11.dtd">
<svg width="100%" height="100%" viewBox="0 0 375 548" version="1.1" xmlns="http://www.w3.org/2000/svg" xmlns:xlink="http://www.w3.org/1999/xlink" xml:space="preserve" xmlns:serif="http://www.serif.com/" style="fill-rule:evenodd;clip-rule:evenodd;stroke-linejoin:round;stroke-miterlimit:2;">
    <g transform="matrix(1,0,0,1,-1522.77,-2165.07)">
        <g transform="matrix(4.16667,0,0,4.16667,0,0)">
            <g transform="matrix(1.5644,0,0,1.5644,431.23,524.37)">
                <path d="M0,77.865L-39.087,63.692L-39.087,26.124L-6.746,13.642C-6.177,13.423 -5.802,12.876 -5.802,12.266L-5.802,4.087L2.499,0.636L2.499,56.417L-6.108,53.274L-6.108,23.701C-6.108,23.215 -6.349,22.759 -6.75,22.484C-7.152,22.208 -7.664,22.148 -8.117,22.326L-29.01,30.429C-29.578,30.649 -29.952,31.196 -29.952,31.805L-29.941,59.37C-29.94,59.993 -29.548,60.549 -28.961,60.759L9.588,74.51L0,77.865ZM-9.059,52.199L-15.688,49.78L-15.706,40.886L-9.059,38.461L-9.059,52.199ZM12.542,72.43L-26.991,58.329L-27.001,32.814L-9.06,25.855L-9.065,35.323L-17.688,38.469C-18.272,38.682 -18.659,39.237 -18.658,39.858L-18.635,50.815C-18.634,51.433 -18.247,51.986 -17.666,52.198L3.468,59.911C3.582,59.952 3.698,59.978 3.815,59.991C4.167,60.029 4.523,59.941 4.82,59.734C5.214,59.458 5.449,59.007 5.449,58.525L5.449,0.677L12.542,3.764L12.542,72.43ZM15.492,2.798C15.492,2.211 15.144,1.679 14.605,1.445L4.563,-2.926C4.547,-2.933 4.529,-2.935 4.513,-2.941C4.454,-2.964 4.394,-2.978 4.333,-2.993C4.277,-3.008 4.221,-3.024 4.164,-3.031C4.102,-3.039 4.041,-3.038 3.979,-3.038C3.921,-3.038 3.864,-3.04 3.807,-3.034C3.744,-3.027 3.684,-3.01 3.623,-2.995C3.567,-2.982 3.511,-2.97 3.457,-2.949C3.44,-2.944 3.424,-2.943 3.408,-2.936L-7.843,1.74C-8.394,1.969 -8.752,2.507 -8.752,3.102L-8.752,11.255L-41.094,23.736C-41.663,23.956 -42.038,24.503 -42.038,25.112L-42.038,64.726C-42.038,65.347 -41.649,65.901 -41.065,66.113L-0.512,80.817C-0.349,80.876 -0.179,80.905 -0.009,80.905C0.156,80.905 0.321,80.878 0.479,80.823L14.504,75.916C14.573,75.891 14.63,75.847 14.694,75.813C14.751,75.784 14.813,75.765 14.867,75.728C14.874,75.723 14.879,75.716 14.887,75.71C14.915,75.689 14.938,75.663 14.964,75.64C15.043,75.573 15.115,75.501 15.178,75.421C15.206,75.385 15.229,75.347 15.253,75.309C15.305,75.228 15.347,75.144 15.381,75.054C15.397,75.014 15.415,74.976 15.427,74.934C15.464,74.808 15.487,74.677 15.489,74.543C15.489,74.538 15.492,74.533 15.492,74.528C15.492,74.527 15.491,74.526 15.491,74.526C15.491,74.525 15.492,74.524 15.492,74.523L15.492,2.798Z" style="fill:rgb(244,63,94);fill-rule:nonzero;"/>
            </g>
        </g>
    </g>
</svg>
