<?xml version="1.0" encoding="UTF-8" standalone="no"?>
<!DOCTYPE svg PUBLIC "-//W3C//DTD SVG 1.1//EN" "http://www.w3.org/Graphics/SVG/1.1/DTD/svg11.dtd">
<svg width="100%" height="100%" viewBox="0 0 661 94" version="1.1" xmlns="http://www.w3.org/2000/svg" xmlns:xlink="http://www.w3.org/1999/xlink" xml:space="preserve" xmlns:serif="http://www.serif.com/" style="fill-rule:evenodd;clip-rule:evenodd;stroke-linejoin:round;stroke-miterlimit:2;">
    <g id="Layer_2">
        <g transform="matrix(81.17,0,0,81.17,-2,75)">
            <path d="M0.082,-0C0.075,-0 0.068,-0.003 0.063,-0.008C0.058,-0.013 0.055,-0.02 0.055,-0.027L0.055,-0.673C0.055,-0.68 0.058,-0.687 0.063,-0.692C0.068,-0.697 0.075,-0.7 0.082,-0.7L0.37,-0.7C0.433,-0.7 0.49,-0.689 0.539,-0.668C0.588,-0.647 0.628,-0.615 0.657,-0.574C0.686,-0.533 0.702,-0.483 0.704,-0.425C0.705,-0.388 0.706,-0.362 0.706,-0.349C0.706,-0.336 0.705,-0.312 0.704,-0.276C0.7,-0.184 0.669,-0.115 0.611,-0.069C0.552,-0.023 0.474,-0 0.375,-0L0.082,-0ZM0.37,-0.195C0.393,-0.195 0.412,-0.202 0.427,-0.216C0.441,-0.229 0.449,-0.249 0.45,-0.276C0.451,-0.295 0.452,-0.32 0.452,-0.351C0.452,-0.382 0.451,-0.407 0.45,-0.425C0.449,-0.452 0.44,-0.472 0.425,-0.485C0.409,-0.498 0.389,-0.505 0.365,-0.505L0.305,-0.505L0.305,-0.195L0.37,-0.195Z" style="fill:rgb(25,29,35);fill-rule:nonzero;"/>
        </g>
        <g transform="matrix(81.17,0,0,81.17,56.61,75)">
            <path d="M0.022,-0C0.016,-0 0.011,-0.002 0.007,-0.007C0.002,-0.011 0,-0.016 0,-0.022C0,-0.025 0,-0.027 0.001,-0.029L0.224,-0.667C0.227,-0.676 0.232,-0.683 0.239,-0.69C0.246,-0.697 0.256,-0.7 0.269,-0.7L0.486,-0.7C0.499,-0.7 0.509,-0.697 0.516,-0.69C0.523,-0.683 0.528,-0.676 0.531,-0.667L0.754,-0.029C0.755,-0.027 0.755,-0.025 0.755,-0.022C0.755,-0.016 0.753,-0.011 0.749,-0.007C0.744,-0.002 0.739,-0 0.733,-0L0.548,-0C0.528,-0 0.515,-0.008 0.509,-0.025L0.485,-0.091L0.27,-0.091L0.246,-0.025C0.24,-0.008 0.227,-0 0.207,-0L0.022,-0ZM0.434,-0.286L0.377,-0.472L0.321,-0.286L0.434,-0.286Z" style="fill:rgb(25,29,35);fill-rule:nonzero;"/>
        </g>
        <g transform="matrix(81.17,0,0,81.17,117.893,75)">
            <path d="M0.082,-0C0.075,-0 0.068,-0.003 0.063,-0.008C0.058,-0.013 0.055,-0.02 0.055,-0.027L0.055,-0.673C0.055,-0.68 0.058,-0.687 0.063,-0.692C0.068,-0.697 0.075,-0.7 0.082,-0.7L0.24,-0.7C0.259,-0.7 0.272,-0.692 0.281,-0.677L0.45,-0.4L0.45,-0.673C0.45,-0.68 0.453,-0.687 0.458,-0.692C0.463,-0.697 0.47,-0.7 0.477,-0.7L0.658,-0.7C0.665,-0.7 0.672,-0.697 0.677,-0.692C0.682,-0.687 0.685,-0.68 0.685,-0.673L0.685,-0.027C0.685,-0.02 0.682,-0.013 0.677,-0.008C0.672,-0.003 0.665,-0 0.658,-0L0.5,-0C0.489,-0 0.48,-0.002 0.474,-0.007C0.468,-0.012 0.463,-0.017 0.459,-0.023L0.29,-0.278L0.29,-0.027C0.29,-0.02 0.287,-0.013 0.282,-0.008C0.277,-0.003 0.27,-0 0.263,-0L0.082,-0Z" style="fill:rgb(25,29,35);fill-rule:nonzero;"/>
        </g>
        <g transform="matrix(81.17,0,0,81.17,177.959,75)">
            <path d="M0.082,-0C0.075,-0 0.068,-0.003 0.063,-0.008C0.058,-0.013 0.055,-0.02 0.055,-0.027L0.055,-0.673C0.055,-0.68 0.058,-0.687 0.063,-0.692C0.068,-0.697 0.075,-0.7 0.082,-0.7L0.286,-0.7C0.293,-0.7 0.3,-0.697 0.305,-0.692C0.31,-0.687 0.313,-0.68 0.313,-0.673L0.313,-0.027C0.313,-0.02 0.31,-0.013 0.305,-0.008C0.3,-0.003 0.293,-0 0.286,-0L0.082,-0Z" style="fill:rgb(25,29,35);fill-rule:nonzero;"/>
        </g>
        <g transform="matrix(81.17,0,0,81.17,207.83,75)">
            <path d="M0.082,-0C0.075,-0 0.068,-0.003 0.063,-0.008C0.058,-0.013 0.055,-0.02 0.055,-0.027L0.055,-0.673C0.055,-0.68 0.058,-0.687 0.063,-0.692C0.068,-0.697 0.075,-0.7 0.082,-0.7L0.595,-0.7C0.602,-0.7 0.609,-0.697 0.614,-0.692C0.619,-0.687 0.622,-0.68 0.622,-0.673L0.622,-0.532C0.622,-0.525 0.619,-0.518 0.614,-0.513C0.609,-0.508 0.602,-0.505 0.595,-0.505L0.295,-0.505L0.295,-0.442L0.573,-0.442C0.58,-0.442 0.587,-0.439 0.592,-0.434C0.597,-0.429 0.6,-0.422 0.6,-0.415L0.6,-0.285C0.6,-0.278 0.597,-0.271 0.592,-0.266C0.587,-0.261 0.58,-0.258 0.573,-0.258L0.295,-0.258L0.295,-0.195L0.603,-0.195C0.61,-0.195 0.617,-0.192 0.622,-0.187C0.627,-0.182 0.63,-0.175 0.63,-0.168L0.63,-0.027C0.63,-0.02 0.627,-0.013 0.622,-0.008C0.617,-0.003 0.61,-0 0.603,-0L0.082,-0Z" style="fill:rgb(25,29,35);fill-rule:nonzero;"/>
        </g>
        <g transform="matrix(81.17,0,0,81.17,261.97,75)">
            <path d="M0.082,-0C0.075,-0 0.068,-0.003 0.063,-0.008C0.058,-0.013 0.055,-0.02 0.055,-0.027L0.055,-0.673C0.055,-0.68 0.058,-0.687 0.063,-0.692C0.068,-0.697 0.075,-0.7 0.082,-0.7L0.282,-0.7C0.289,-0.7 0.296,-0.697 0.301,-0.692C0.306,-0.687 0.309,-0.68 0.309,-0.673L0.309,-0.205L0.586,-0.205C0.593,-0.205 0.6,-0.202 0.605,-0.197C0.61,-0.192 0.613,-0.185 0.613,-0.178L0.613,-0.027C0.613,-0.02 0.61,-0.013 0.605,-0.008C0.6,-0.003 0.593,-0 0.586,-0L0.082,-0Z" style="fill:rgb(25,29,35);fill-rule:nonzero;"/>
        </g>
        <g transform="matrix(81.17,0,0,81.17,312.78,75)">
            <path d="M0.347,0.01C0.276,0.01 0.217,0 0.168,-0.019C0.118,-0.038 0.082,-0.064 0.057,-0.097C0.032,-0.129 0.019,-0.164 0.018,-0.203C0.018,-0.209 0.02,-0.214 0.025,-0.219C0.029,-0.223 0.034,-0.225 0.04,-0.225L0.23,-0.225C0.239,-0.225 0.247,-0.224 0.253,-0.222C0.258,-0.219 0.265,-0.215 0.273,-0.208C0.292,-0.193 0.317,-0.185 0.347,-0.185C0.37,-0.185 0.388,-0.188 0.402,-0.193C0.415,-0.198 0.422,-0.204 0.422,-0.213C0.422,-0.225 0.413,-0.234 0.395,-0.241C0.377,-0.247 0.343,-0.253 0.293,-0.26C0.121,-0.283 0.035,-0.356 0.035,-0.48C0.035,-0.525 0.048,-0.565 0.074,-0.6C0.099,-0.634 0.135,-0.662 0.181,-0.681C0.227,-0.7 0.28,-0.71 0.34,-0.71C0.403,-0.71 0.458,-0.699 0.505,-0.678C0.552,-0.657 0.589,-0.63 0.614,-0.598C0.639,-0.565 0.653,-0.534 0.654,-0.503C0.654,-0.497 0.652,-0.492 0.648,-0.488C0.643,-0.483 0.638,-0.481 0.633,-0.481L0.433,-0.481C0.424,-0.481 0.416,-0.482 0.411,-0.485C0.406,-0.487 0.4,-0.491 0.393,-0.497C0.379,-0.509 0.361,-0.515 0.34,-0.515C0.308,-0.515 0.292,-0.506 0.292,-0.487C0.292,-0.477 0.3,-0.469 0.316,-0.462C0.331,-0.455 0.36,-0.449 0.403,-0.444C0.47,-0.435 0.523,-0.422 0.564,-0.405C0.604,-0.388 0.633,-0.365 0.652,-0.336C0.67,-0.307 0.679,-0.27 0.679,-0.226C0.679,-0.179 0.665,-0.137 0.636,-0.102C0.607,-0.066 0.568,-0.038 0.518,-0.019C0.467,0 0.41,0.01 0.347,0.01Z" style="fill:rgb(188,45,87);fill-rule:nonzero;"/>
        </g>
        <g transform="matrix(81.17,0,0,81.17,369.36,75)">
            <path d="M0.371,0.01C0.271,0.01 0.191,-0.013 0.132,-0.059C0.073,-0.105 0.041,-0.172 0.037,-0.26C0.036,-0.278 0.036,-0.307 0.036,-0.347C0.036,-0.388 0.036,-0.417 0.037,-0.436C0.039,-0.493 0.054,-0.543 0.083,-0.584C0.111,-0.625 0.15,-0.657 0.199,-0.678C0.248,-0.699 0.306,-0.71 0.371,-0.71C0.436,-0.71 0.494,-0.699 0.543,-0.678C0.592,-0.657 0.631,-0.625 0.66,-0.584C0.688,-0.543 0.703,-0.493 0.705,-0.436C0.706,-0.399 0.707,-0.369 0.707,-0.347C0.707,-0.325 0.706,-0.296 0.705,-0.26C0.701,-0.172 0.669,-0.105 0.61,-0.059C0.551,-0.013 0.471,0.01 0.371,0.01ZM0.371,-0.185C0.394,-0.185 0.411,-0.192 0.425,-0.205C0.438,-0.218 0.444,-0.239 0.445,-0.266C0.446,-0.305 0.447,-0.333 0.447,-0.351C0.447,-0.37 0.446,-0.398 0.445,-0.434C0.444,-0.461 0.437,-0.482 0.424,-0.495C0.411,-0.508 0.393,-0.515 0.371,-0.515C0.349,-0.515 0.331,-0.508 0.318,-0.495C0.305,-0.482 0.298,-0.461 0.297,-0.434C0.296,-0.416 0.296,-0.388 0.296,-0.351C0.296,-0.314 0.296,-0.285 0.297,-0.266C0.298,-0.239 0.305,-0.218 0.318,-0.205C0.331,-0.192 0.348,-0.185 0.371,-0.185Z" style="fill:rgb(188,45,87);fill-rule:nonzero;"/>
        </g>
        <g transform="matrix(81.17,0,0,81.17,428.21,75)">
            <path d="M0.022,-0C0.016,-0 0.011,-0.002 0.007,-0.007C0.002,-0.011 0,-0.016 0,-0.022C0,-0.025 0,-0.027 0.001,-0.029L0.224,-0.667C0.227,-0.676 0.232,-0.683 0.239,-0.69C0.246,-0.697 0.256,-0.7 0.269,-0.7L0.486,-0.7C0.499,-0.7 0.509,-0.697 0.516,-0.69C0.523,-0.683 0.528,-0.676 0.531,-0.667L0.754,-0.029C0.755,-0.027 0.755,-0.025 0.755,-0.022C0.755,-0.016 0.753,-0.011 0.749,-0.007C0.744,-0.002 0.739,-0 0.733,-0L0.548,-0C0.528,-0 0.515,-0.008 0.509,-0.025L0.485,-0.091L0.27,-0.091L0.246,-0.025C0.24,-0.008 0.227,-0 0.207,-0L0.022,-0ZM0.434,-0.286L0.377,-0.472L0.321,-0.286L0.434,-0.286Z" style="fill:rgb(188,45,87);fill-rule:nonzero;"/>
        </g>
        <g transform="matrix(81.17,0,0,81.17,489.493,75)">
            <path d="M0.082,-0C0.075,-0 0.068,-0.003 0.063,-0.008C0.058,-0.013 0.055,-0.02 0.055,-0.027L0.055,-0.673C0.055,-0.68 0.058,-0.687 0.063,-0.692C0.068,-0.697 0.075,-0.7 0.082,-0.7L0.378,-0.7C0.474,-0.7 0.549,-0.679 0.603,-0.635C0.657,-0.593 0.684,-0.533 0.684,-0.457C0.684,-0.414 0.674,-0.376 0.655,-0.343C0.636,-0.31 0.609,-0.282 0.576,-0.261L0.699,-0.033C0.701,-0.029 0.702,-0.025 0.702,-0.022C0.702,-0.016 0.7,-0.011 0.696,-0.007C0.691,-0.002 0.686,-0 0.68,-0L0.475,-0C0.463,-0 0.454,-0.003 0.447,-0.009C0.44,-0.014 0.435,-0.02 0.432,-0.027L0.346,-0.218L0.305,-0.218L0.305,-0.027C0.305,-0.02 0.302,-0.013 0.297,-0.008C0.292,-0.003 0.285,-0 0.278,-0L0.082,-0ZM0.378,-0.408C0.393,-0.408 0.404,-0.413 0.412,-0.423C0.42,-0.432 0.424,-0.444 0.424,-0.459C0.424,-0.474 0.42,-0.487 0.412,-0.498C0.405,-0.508 0.393,-0.514 0.378,-0.514L0.305,-0.514L0.305,-0.408L0.378,-0.408Z" style="fill:rgb(188,45,87);fill-rule:nonzero;"/>
        </g>
        <g transform="matrix(81.17,0,0,81.17,548.098,75)">
            <path d="M0.082,-0C0.075,-0 0.068,-0.003 0.063,-0.008C0.058,-0.013 0.055,-0.02 0.055,-0.027L0.055,-0.673C0.055,-0.68 0.058,-0.687 0.063,-0.692C0.068,-0.697 0.075,-0.7 0.082,-0.7L0.595,-0.7C0.602,-0.7 0.609,-0.697 0.614,-0.692C0.619,-0.687 0.622,-0.68 0.622,-0.673L0.622,-0.532C0.622,-0.525 0.619,-0.518 0.614,-0.513C0.609,-0.508 0.602,-0.505 0.595,-0.505L0.295,-0.505L0.295,-0.442L0.573,-0.442C0.58,-0.442 0.587,-0.439 0.592,-0.434C0.597,-0.429 0.6,-0.422 0.6,-0.415L0.6,-0.285C0.6,-0.278 0.597,-0.271 0.592,-0.266C0.587,-0.261 0.58,-0.258 0.573,-0.258L0.295,-0.258L0.295,-0.195L0.603,-0.195C0.61,-0.195 0.617,-0.192 0.622,-0.187C0.627,-0.182 0.63,-0.175 0.63,-0.168L0.63,-0.027C0.63,-0.02 0.627,-0.013 0.622,-0.008C0.617,-0.003 0.61,-0 0.603,-0L0.082,-0Z" style="fill:rgb(188,45,87);fill-rule:nonzero;"/>
        </g>
        <g transform="matrix(81.17,0,0,81.17,602.238,75)">
            <path d="M0.347,0.01C0.276,0.01 0.217,0 0.168,-0.019C0.118,-0.038 0.082,-0.064 0.057,-0.097C0.032,-0.129 0.019,-0.164 0.018,-0.203C0.018,-0.209 0.02,-0.214 0.025,-0.219C0.029,-0.223 0.034,-0.225 0.04,-0.225L0.23,-0.225C0.239,-0.225 0.247,-0.224 0.253,-0.222C0.258,-0.219 0.265,-0.215 0.273,-0.208C0.292,-0.193 0.317,-0.185 0.347,-0.185C0.37,-0.185 0.388,-0.188 0.402,-0.193C0.415,-0.198 0.422,-0.204 0.422,-0.213C0.422,-0.225 0.413,-0.234 0.395,-0.241C0.377,-0.247 0.343,-0.253 0.293,-0.26C0.121,-0.283 0.035,-0.356 0.035,-0.48C0.035,-0.525 0.048,-0.565 0.074,-0.6C0.099,-0.634 0.135,-0.662 0.181,-0.681C0.227,-0.7 0.28,-0.71 0.34,-0.71C0.403,-0.71 0.458,-0.699 0.505,-0.678C0.552,-0.657 0.589,-0.63 0.614,-0.598C0.639,-0.565 0.653,-0.534 0.654,-0.503C0.654,-0.497 0.652,-0.492 0.648,-0.488C0.643,-0.483 0.638,-0.481 0.633,-0.481L0.433,-0.481C0.424,-0.481 0.416,-0.482 0.411,-0.485C0.406,-0.487 0.4,-0.491 0.393,-0.497C0.379,-0.509 0.361,-0.515 0.34,-0.515C0.308,-0.515 0.292,-0.506 0.292,-0.487C0.292,-0.477 0.3,-0.469 0.316,-0.462C0.331,-0.455 0.36,-0.449 0.403,-0.444C0.47,-0.435 0.523,-0.422 0.564,-0.405C0.604,-0.388 0.633,-0.365 0.652,-0.336C0.67,-0.307 0.679,-0.27 0.679,-0.226C0.679,-0.179 0.665,-0.137 0.636,-0.102C0.607,-0.066 0.568,-0.038 0.518,-0.019C0.467,0 0.41,0.01 0.347,0.01Z" style="fill:rgb(188,45,87);fill-rule:nonzero;"/>
        </g>
    </g>
</svg>
